<?xml version="1.0" encoding="UTF-8" standalone="no"?>
<svg
   data-name="Layer 1"
   width="611.58197"
   height="432.0506"
   viewBox="0 0 611.58197 432.0506"
   version="1.1"
   id="svg136"
   sodipodi:docname="hero.svg"
   inkscape:version="1.2.2 (732a01da63, 2022-12-09)"
   xmlns:inkscape="http://www.inkscape.org/namespaces/inkscape"
   xmlns:sodipodi="http://sodipodi.sourceforge.net/DTD/sodipodi-0.dtd"
   xmlns="http://www.w3.org/2000/svg"
   xmlns:svg="http://www.w3.org/2000/svg">
  <defs
     id="defs140" />
  <sodipodi:namedview
     id="namedview138"
     pagecolor="#ffffff"
     bordercolor="#000000"
     borderopacity="0.25"
     inkscape:showpageshadow="2"
     inkscape:pageopacity="0.0"
     inkscape:pagecheckerboard="0"
     inkscape:deskcolor="#d1d1d1"
     showgrid="false"
     inkscape:zoom="0.30378386"
     inkscape:cx="-393.37178"
     inkscape:cy="510.23118"
     inkscape:window-width="1366"
     inkscape:window-height="705"
     inkscape:window-x="-8"
     inkscape:window-y="-8"
     inkscape:window-maximized="1"
     inkscape:current-layer="svg136" />
  <path
     d="m 184.39169,306.40036 a 10.22114,10.22114 0 0 0 -10.20953,10.20973 v 23.88568 a 10.22114,10.22114 0 0 0 10.20953,10.20973 h 12.94974 a 10.22114,10.22114 0 0 0 10.20953,-10.20973 v -23.88568 a 10.22114,10.22114 0 0 0 -10.20953,-10.20973 z"
     fill="#3f3d56"
     id="path72" />
  <path
     d="m 423.77262,351.5 h -12.94973 a 11.01656,11.01656 0 0 1 -11.004,-11.00423 v -23.88568 a 11.01656,11.01656 0 0 1 11.004,-11.00423 h 12.94973 a 11.01655,11.01655 0 0 1 11.004,11.00423 v 23.88568 A 11.01655,11.01655 0 0 1 423.77262,351.5 Z"
     fill="#3f3d56"
     id="path74" />
  <path
     d="M 415.1802,332.37547 H 192.18962 c -10.14844,0 -18.40471,-5.98277 -18.40471,-13.33651 V 276.1591 l 11.06824,-11.65635 h 239.81657 l 8.91519,11.68079 v 42.85542 c 0,7.35374 -8.25627,13.33651 -18.40471,13.33651 z"
     fill="#cccccc"
     id="path76" />
  <path
     d="M 423.62908,285.95413 H 186.12461 l -2.41353,-37.00883 1.53584,-3.787 8.9276,-21.96927 h 219.79706 l 12.07144,24.94747 z"
     fill="#cccccc"
     id="path78" />
  <polygon
     points="371.614,276.023 371.614,255.366 424.154,245.149 425.64,248.216 423.868,276.023 "
     fill="#ffffff"
     id="polygon80" />
  <polygon
     points="185.877,276.023 184.113,249.01 185.615,245.308 237.345,255.366 237.345,276.023 "
     fill="#ffffff"
     id="polygon82" />
  <path
     d="m 412.64677,229.54495 h -217.15 l 23.16063,-77.20183 a 15.4952,15.4952 0 0 1 14.76295,-11.09345 l 143.811,-1.36981 a 15.56437,15.56437 0 0 1 15.219,11.6645 z"
     fill="#cccccc"
     id="path84" />
  <path
     d="m 395.93024,222.24496 -183.75216,-2.17888 a 1.48477,1.48477 0 0 1 -1.39631,-1.93785 l 17.61552,-54.96041 a 1.48476,1.48476 0 0 1 1.41392,-1.03159 h 147.79563 a 1.48476,1.48476 0 0 1 1.41372,1.031 l 18.341,57.1393 a 1.48477,1.48477 0 0 1 -1.43132,1.93843 z"
     fill="#ffffff"
     id="path86" />
  <path
     d="m 328.83579,149.30092 h -49.528 c -0.41737,0 -0.79594,-0.41083 -0.98795,-1.07265 a 3.33948,3.33948 0 0 1 0.0789,-2.05917 l 4.08423,-10.32844 C 282.69117,135.31423 283.03106,135 283.39203,135 h 41.35956 c 0.361,0 0.70086,0.31423 0.90906,0.84066 l 4.08423,10.32844 a 3.33948,3.33948 0 0 1 0.0789,2.05917 c -0.19203,0.66182 -0.5706,1.07265 -0.98797,1.07265 z"
     fill="#ffffff"
     id="path88" />
  <path
     d="m 195.63353,227.95596 h -32.57431 v -7.15977 a 8.73991,8.73991 0 0 1 8.73014,-8.73014 h 23.84417 z"
     fill="#cccccc"
     id="path90" />
  <path
     d="m 445.10508,227.95596 h -32.5743 v -15.88991 h 23.84417 a 8.7399,8.7399 0 0 1 8.73014,8.73014 z"
     fill="#cccccc"
     id="path92" />
  <rect
     x="-134.14017"
     y="373.41141"
     width="169.21091"
     height="1.9995849"
     transform="rotate(-19.75989)"
     fill="#3f3d56"
     id="rect94"
     style="stroke-width:1" />
  <rect
     x="-170.1938"
     y="536.3252"
     width="1.9995"
     height="169.21037"
     transform="rotate(-70.24519)"
     fill="#3f3d56"
     id="rect96" />
  <path
     d="m 312.93083,381.0506 h -9.532 v -12.31164 h 9.532 z m 0,-24.6242 h -9.532 v -12.31165 h 9.532 z"
     fill="#e6e6e6"
     id="path98" />
  <path
     d="m 312.93083,432.0506 h -9.532 v -12.31164 h 9.532 z m 0,-24.6242 h -9.532 v -12.31165 h 9.532 z"
     fill="#e6e6e6"
     id="path100" />
  <circle
     cx="303.79474"
     cy="51.811031"
     r="47.28997"
     fill="#ffffff"
     id="circle130" />
  <polygon
     points="330.278,39.062 299.288,71.773 285.134,53.574 293.365,47.172 300.067,55.789 322.707,31.889 "
     fill="#ffffff"
     id="polygon132"
     style="display:inline;fill:#000000" />
</svg>
